<svg xmlns="http://www.w3.org/2000/svg" width="135.481" height="18.578" viewBox="0 0 135.481 18.578">
  <g id="Grupo_5" data-name="Grupo 5" transform="translate(-1534 -6325)">
    <g id="estrella_1_" data-name="estrella (1)" transform="translate(1534 6324.548)">
      <path id="Trazado_3" data-name="Trazado 3" d="M10.2.758l2.478,5.865,6.344.545a.5.5,0,0,1,.285.876L14.5,12.213l1.442,6.2a.5.5,0,0,1-.745.541L9.741,15.668,4.289,18.956a.5.5,0,0,1-.745-.541l1.442-6.2L.173,8.043a.5.5,0,0,1,.285-.876L6.8,6.622,9.28.758a.5.5,0,0,1,.921,0Z" fill="#111"/>
    </g>
    <g id="estrella_1_2" data-name="estrella (1)" transform="translate(1563 6324.548)">
      <path id="Trazado_3-2" data-name="Trazado 3" d="M10.2.758l2.478,5.865,6.344.545a.5.5,0,0,1,.285.876L14.5,12.213l1.442,6.2a.5.5,0,0,1-.745.541L9.741,15.668,4.289,18.956a.5.5,0,0,1-.745-.541l1.442-6.2L.173,8.043a.5.5,0,0,1,.285-.876L6.8,6.622,9.28.758a.5.5,0,0,1,.921,0Z" fill="#111"/>
    </g>
    <g id="estrella_1_3" data-name="estrella (1)" transform="translate(1592 6324.548)">
      <path id="Trazado_3-3" data-name="Trazado 3" d="M10.2.758l2.478,5.865,6.344.545a.5.5,0,0,1,.285.876L14.5,12.213l1.442,6.2a.5.5,0,0,1-.745.541L9.741,15.668,4.289,18.956a.5.5,0,0,1-.745-.541l1.442-6.2L.173,8.043a.5.5,0,0,1,.285-.876L6.8,6.622,9.28.758a.5.5,0,0,1,.921,0Z" fill="#111"/>
    </g>
    <g id="estrella_1_4" data-name="estrella (1)" transform="translate(1621 6324.548)">
      <path id="Trazado_3-4" data-name="Trazado 3" d="M10.2.758l2.478,5.865,6.344.545a.5.5,0,0,1,.285.876L14.5,12.213l1.442,6.2a.5.5,0,0,1-.745.541L9.741,15.668,4.289,18.956a.5.5,0,0,1-.745-.541l1.442-6.2L.173,8.043a.5.5,0,0,1,.285-.876L6.8,6.622,9.28.758a.5.5,0,0,1,.921,0Z" fill="#111"/>
    </g>
    <g id="estrella_1_5" data-name="estrella (1)" transform="translate(1650 6324.548)">
      <path id="Trazado_3-5" data-name="Trazado 3" d="M10.2.758l2.478,5.865,6.344.545a.5.5,0,0,1,.285.876L14.5,12.213l1.442,6.2a.5.5,0,0,1-.745.541L9.741,15.668,4.289,18.956a.5.5,0,0,1-.745-.541l1.442-6.2L.173,8.043a.5.5,0,0,1,.285-.876L6.8,6.622,9.28.758a.5.5,0,0,1,.921,0Z" fill="#111"/>
    </g>
  </g>
</svg>
