<svg xmlns="http://www.w3.org/2000/svg" width="17.64" height="19.084" viewBox="0 0 17.64 19.084">
  <g id="profile" transform="translate(0.78)">
    <path id="Trazado_32" data-name="Trazado 32" d="M-8370.741-6616.393s-.36-4.3,1.458-5.9,3.336-1.36,6.661-1.36,5.171-.193,6.64,1.36,1.308,5.9,1.308,5.9" transform="translate(8370.771 6634.667)" fill="none" stroke="#000" stroke-linecap="round" stroke-linejoin="round" stroke-width="1.5"/>
    <g id="Trazado_33" data-name="Trazado 33" transform="translate(3.325)" fill="none">
      <path d="M4.62,0A4.62,4.62,0,1,1,0,4.62,4.62,4.62,0,0,1,4.62,0Z" stroke="none"/>
      <path d="M 4.619516372680664 1.499996185302734 C 2.899406433105469 1.499996185302734 1.499996185302734 2.899406433105469 1.499996185302734 4.619516372680664 C 1.499996185302734 6.339626312255859 2.899406433105469 7.739036560058594 4.619516372680664 7.739036560058594 C 6.339626312255859 7.739036560058594 7.739036560058594 6.339626312255859 7.739036560058594 4.619516372680664 C 7.739036560058594 2.899406433105469 6.339626312255859 1.499996185302734 4.619516372680664 1.499996185302734 M 4.619516372680664 -3.814697265625e-06 C 7.170806407928467 -3.814697265625e-06 9.239036560058594 2.068226337432861 9.239036560058594 4.619516372680664 C 9.239036560058594 7.170806407928467 7.170806407928467 9.239036560058594 4.619516372680664 9.239036560058594 C 2.068226337432861 9.239036560058594 -3.814697265625e-06 7.170806407928467 -3.814697265625e-06 4.619516372680664 C -3.814697265625e-06 2.068226337432861 2.068226337432861 -3.814697265625e-06 4.619516372680664 -3.814697265625e-06 Z" stroke="none" fill="#000"/>
    </g>
  </g>
</svg>
