<svg xmlns="http://www.w3.org/2000/svg" width="76.962" height="85.663" viewBox="0 0 76.962 85.663"><g transform="translate(-26)"><g transform="translate(81.212 66.254)"><path d="M357.673,396a1.673,1.673,0,1,0,1.673,1.673A1.674,1.674,0,0,0,357.673,396Z" transform="translate(-356 -396)" fill="#09f"/></g><g transform="translate(26)"><path d="M87,60.844l-7.952-2.65L76.2,52.484a18.325,18.325,0,0,0,4.96-9.694l.356-2.134h3.045a5.025,5.025,0,0,0,5.019-5.019V25.1a25.1,25.1,0,1,0-50.193,0v10.54a5.027,5.027,0,0,0,3.346,4.732v1.961a5.025,5.025,0,0,0,5.019,5.019H49.22a18.151,18.151,0,0,0,2.806,4.346c.237.272.484.536.737.793L49.91,58.194l-7.952,2.65C32.711,63.928,26,73.661,26,83.989a1.673,1.673,0,0,0,1.673,1.673h73.616a1.673,1.673,0,0,0,1.673-1.673C102.962,73.661,96.251,63.928,87,60.844Zm-.773-25.207a1.675,1.675,0,0,1-1.673,1.673H82c.425-3.294.709-6.8.823-10.253,0-.1.006-.192.009-.288h3.395ZM44.4,37.31a1.675,1.675,0,0,1-1.673-1.673V26.769h3.4q.008.262.018.526c0,.006,0,.012,0,.018v0c.117,3.358.4,6.773.812,9.995H44.4ZM47.75,44a1.675,1.675,0,0,1-1.673-1.673V40.656h1.372l.356,2.135c.068.406.151.81.248,1.211ZM46.08,23.423H42.795a21.751,21.751,0,0,1,43.373,0H82.882a16.946,16.946,0,0,0-16.9-16.731H62.984A16.946,16.946,0,0,0,46.08,23.423Zm16.9-13.385h2.995a13.6,13.6,0,0,1,13.56,13.621c0,.527,0,.985-.013,1.4,0,.005,0,.011,0,.016l-2.093-.3a26.884,26.884,0,0,1-15.115-7.558,1.674,1.674,0,0,0-1.183-.49A15.136,15.136,0,0,0,49.5,22.237,13.6,13.6,0,0,1,62.984,10.039ZM51.521,44c-.838-2.786-1.8-10.984-2.008-16.238l2.252-3A11.777,11.777,0,0,1,60.474,20.1a30.262,30.262,0,0,0,16.486,8l2.463.352c-.165,3.494-.5,7-.983,10.226v0c-.153,1.037-.274,1.7-.583,3.568-.886,5.315-4.852,10.121-10.087,11.429a13.164,13.164,0,0,1-14.778-6.321H56.4a5.027,5.027,0,0,0,4.732,3.346h3.346a5.019,5.019,0,1,0,0-10.039H61.135A5.022,5.022,0,0,0,56.4,44Zm9.473,13.053a16.782,16.782,0,0,0,6.223.14l-2.956,3.127Zm.966,5.7-5.307,5.612a63.747,63.747,0,0,1-3.746-8.686L54.9,55.694Zm11.817-7.627,2.276,4.552a63.729,63.729,0,0,1-3.746,8.689l-5.68-5.68ZM59.462,45.675A1.673,1.673,0,0,1,61.135,44h3.346a1.673,1.673,0,1,1,0,3.346H61.135A1.675,1.675,0,0,1,59.462,45.675ZM29.413,82.316c.663-8.288,6.179-15.822,13.6-18.3l7.043-2.347A67.069,67.069,0,0,0,54.821,72l.009.017h0a67.089,67.089,0,0,0,4.58,6.993l2.058,3.3Zm35.068-1.491-2.269-3.643q-.038-.061-.081-.119a63.791,63.791,0,0,1-3.77-5.632l5.967-6.31,6.287,6.287a63.722,63.722,0,0,1-3.783,5.654C66.75,77.172,66.866,77,64.481,80.825Zm3.013,1.491,2.058-3.3a67.06,67.06,0,0,0,4.612-7.049l.025-.045,0-.005A67.015,67.015,0,0,0,78.9,61.672l7.043,2.347c7.424,2.476,12.94,10.009,13.6,18.3H67.494Z" transform="translate(-26)" fill="#09f"/></g><g transform="translate(87.091 69.448)"><path d="M398.569,421.186a16.728,16.728,0,0,0-4.736-5.75,1.673,1.673,0,1,0-2.04,2.652,13.361,13.361,0,0,1,3.783,4.593,1.673,1.673,0,0,0,2.994-1.5Z" transform="translate(-391.139 -415.088)" fill="#09f"/></g></g></svg>