<svg xmlns="http://www.w3.org/2000/svg" width="127.753" height="151.408" viewBox="0 0 127.753 151.408"><g transform="translate(-39.996)"><path d="M179.176,115.988a4.733,4.733,0,0,0-6.692,0l-8.853,8.853c-5.411-2.273-14.441-11.284-16.729-16.729l8.853-8.853a4.732,4.732,0,0,0,0-6.691l-18.4-18.4a4.733,4.733,0,0,0-6.691,0L120.626,84.2c-4.977,4.977-5.586,13.261-1.715,23.327,11.154,29,52.956,59.26,68.629,43.588l10.037-10.037a4.732,4.732,0,0,0,0-6.691Zm1.673,28.439c-2.079,2.078-7.151,1.915-13.239-.426-15.728-6.049-33.8-24.092-39.867-39.867-2.342-6.087-2.5-11.16-.426-13.239l6.691-6.691,11.71,11.71-6.691,6.691c-1.784,1.784-3.185,5.216.273,11.439,5.073,9.131,22.406,26.1,29.839,18.672l6.691-6.691,11.71,11.71Z" transform="translate(-53.805 -51.258)" fill="#09f"/><path d="M141.725,0H66.02A26.053,26.053,0,0,0,40,26.024v75.705A26.053,26.053,0,0,0,66.02,127.753H87l12.816,21.36a4.734,4.734,0,0,0,8.114,0l12.817-21.36h20.979a26.053,26.053,0,0,0,26.024-26.024V26.024A26.053,26.053,0,0,0,141.725,0Zm16.561,101.729a16.579,16.579,0,0,1-16.561,16.561H118.067a4.732,4.732,0,0,0-4.057,2.3l-10.137,16.9-10.137-16.9a4.732,4.732,0,0,0-4.057-2.3H66.02a16.579,16.579,0,0,1-16.561-16.561V26.024A16.579,16.579,0,0,1,66.02,9.463h75.705a16.579,16.579,0,0,1,16.561,16.561Z" transform="translate(0)" fill="#09f"/></g></svg>