<svg xmlns="http://www.w3.org/2000/svg" width="86.909" height="86.462" viewBox="0 0 86.909 86.462"><g transform="translate(-0.001 -1.318)"><g transform="translate(0.001 1.318)"><path d="M86.9,39.534a2.56,2.56,0,0,0-1-1.773l-6.884-5.215,2.5-8.265a2.559,2.559,0,0,0-1.867-3.235l-8.41-1.964-1.074-8.569a2.559,2.559,0,0,0-3.021-2.2L58.661,9.945,54.195,2.554a2.56,2.56,0,0,0-3.653-.777L43.455,6.714,36.368,1.777a2.56,2.56,0,0,0-3.653.777L28.249,9.946,19.767,8.319a2.559,2.559,0,0,0-3.022,2.2l-1.074,8.569-8.41,1.964a2.559,2.559,0,0,0-1.868,3.234l2.5,8.265L1.015,37.761a2.559,2.559,0,0,0-.39,3.715l5.649,6.532L2.106,55.571A2.559,2.559,0,0,0,3.26,59.123l7.818,3.669L10.346,71.4a2.56,2.56,0,0,0,2.5,2.776l8.635.172L24.312,82.5a2.559,2.559,0,0,0,3.412,1.519l7.958-3.355,5.906,6.3a2.559,2.559,0,0,0,3.735,0l5.906-6.3,7.958,3.355A2.559,2.559,0,0,0,62.6,82.5l2.832-8.159,8.634-.172a2.56,2.56,0,0,0,2.5-2.776l-.731-8.605,7.818-3.669A2.559,2.559,0,0,0,84.8,55.571l-4.168-7.564,5.65-6.532A2.562,2.562,0,0,0,86.9,39.534Zm-11.6,9.383L79,55.65l-6.96,3.266a2.56,2.56,0,0,0-1.463,2.534l.651,7.66-7.686.153a2.56,2.56,0,0,0-2.367,1.72l-2.521,7.263L51.573,75.26a2.559,2.559,0,0,0-2.862.608l-5.257,5.609L38.2,75.868a2.558,2.558,0,0,0-2.862-.608l-7.084,2.986-2.521-7.263a2.559,2.559,0,0,0-2.367-1.72l-7.687-.153.651-7.66a2.56,2.56,0,0,0-1.463-2.534L7.907,55.65l3.71-6.733a2.56,2.56,0,0,0-.306-2.91L6.282,40.192,12.41,35.55a2.559,2.559,0,0,0,.9-2.782L11.085,25.41l7.487-1.748a2.56,2.56,0,0,0,1.958-2.174l.956-7.628,7.55,1.448a2.559,2.559,0,0,0,2.673-1.19l3.976-6.58,6.309,4.394a2.559,2.559,0,0,0,2.926,0l6.308-4.394,3.976,6.58a2.559,2.559,0,0,0,2.673,1.19l7.55-1.448.956,7.628a2.56,2.56,0,0,0,1.958,2.174l7.487,1.748L73.6,32.767a2.559,2.559,0,0,0,.9,2.783l6.128,4.642L75.6,46.007A2.56,2.56,0,0,0,75.292,48.917Z" transform="translate(-0.001 -1.318)" fill="#09f"/></g><g transform="translate(18.965 20.059)"><path d="M136.212,111.722a24.49,24.49,0,1,0,24.49,24.49A24.518,24.518,0,0,0,136.212,111.722Zm0,43.862a19.371,19.371,0,1,1,19.372-19.372A19.393,19.393,0,0,1,136.212,155.584Z" transform="translate(-111.722 -111.722)" fill="#09f"/></g><g transform="translate(32.672 36.507)"><path d="M213.291,209.372a2.559,2.559,0,0,0-3.62,0l-9.156,9.155-3.673-3.673a2.559,2.559,0,1,0-3.619,3.619l5.483,5.483a2.559,2.559,0,0,0,3.619,0l10.965-10.965A2.56,2.56,0,0,0,213.291,209.372Z" transform="translate(-192.474 -208.622)" fill="#09f"/></g></g></svg>