<svg xmlns="http://www.w3.org/2000/svg" width="85.98" height="85.979" viewBox="0 0 85.98 85.979"><path d="M73.391,73.386a42.989,42.989,0,0,0,0-60.792l0,0,0,0a42.99,42.99,0,0,0-60.8,60.8l0,0,0,0a42.99,42.99,0,0,0,60.793,0l0,0Zm-1.856-5.414-5.978-5.979a29.509,29.509,0,0,0,0-38.007l5.978-5.979a37.875,37.875,0,0,1,0,49.964ZM67.973,14.445l-5.979,5.979a29.509,29.509,0,0,0-38.007,0l-5.979-5.979a37.876,37.876,0,0,1,49.965,0ZM14.445,18.008l5.979,5.979a29.511,29.511,0,0,0,0,38.007l-5.979,5.979a37.875,37.875,0,0,1,0-49.964Zm3.562,53.527,7.685-7.685a2.518,2.518,0,0,0,0-3.562A24.462,24.462,0,1,1,60.287,25.693h0a24.277,24.277,0,0,1,6.927,13.885c-7.071-2.008-21.034-5.854-24.226-5.854a9.264,9.264,0,0,0,0,18.529c3.192,0,17.154-3.846,24.226-5.854a24.281,24.281,0,0,1-6.928,13.887,2.518,2.518,0,0,0,0,3.562l7.685,7.685a37.877,37.877,0,0,1-49.966,0ZM60.688,42.99c-7.939,2.179-16.012,4.226-17.7,4.226a4.226,4.226,0,0,1,0-8.453C44.676,38.763,52.749,40.812,60.688,42.99Zm0,0" transform="translate(0 0)" fill="#09f"/><path d="M221.422,354.609H210.246a2.519,2.519,0,1,0,0,5.038h11.176a2.519,2.519,0,0,0,0-5.038Zm0,0" transform="translate(-172.844 -295.06)" fill="#09f"/></svg>