<svg xmlns="http://www.w3.org/2000/svg" width="167.421" height="116.069" viewBox="0 0 167.421 116.069"><g transform="translate(0 -78.521)"><g transform="translate(105.341 152.383)"><g transform="translate(0 0)"><path d="M343.254,304.4a21.1,21.1,0,1,0,21.1,21.1A21.127,21.127,0,0,0,343.254,304.4Zm0,31.655a10.552,10.552,0,1,1,10.552-10.552A10.562,10.562,0,0,1,343.254,336.058Z" transform="translate(-322.151 -304.403)" fill="#09f"/></g></g><g transform="translate(33.238 152.383)"><g transform="translate(0 0)"><path d="M122.75,304.4a21.1,21.1,0,1,0,21.1,21.1A21.127,21.127,0,0,0,122.75,304.4Zm0,31.655A10.552,10.552,0,1,1,133.3,325.507,10.562,10.562,0,0,1,122.75,336.058Z" transform="translate(-101.647 -304.403)" fill="#09f"/></g></g><g transform="translate(108.155 89.073)"><g transform="translate(0 0)"><path d="M363.257,113.7a5.279,5.279,0,0,0-4.715-2.905H330.756v10.552h24.533l14.366,28.574,9.43-4.741Z" transform="translate(-330.756 -110.79)" fill="#09f"/></g></g><g transform="translate(70.697 168.387)"><g transform="translate(0 0)"><rect width="39.921" height="10.552" fill="#09f"/></g></g><g transform="translate(14.948 168.387)"><g transform="translate(0 0)"><path d="M69.28,353.345H50.991a5.276,5.276,0,0,0,0,10.551H69.28a5.276,5.276,0,1,0,0-10.551Z" transform="translate(-45.715 -353.345)" fill="#09f"/></g></g><g transform="translate(14.948 78.521)"><path d="M197.079,136.133,186.7,122.768a5.269,5.269,0,0,0-4.166-2.04H144.2V83.8a5.275,5.275,0,0,0-5.276-5.276H50.991a5.276,5.276,0,1,0,0,10.551h82.655V126a5.275,5.275,0,0,0,5.276,5.276h41.03l7.683,9.9v27.209h-14.6a5.276,5.276,0,1,0,0,10.551h19.872a5.276,5.276,0,0,0,5.276-5.276V139.369A5.283,5.283,0,0,0,197.079,136.133Z" transform="translate(-45.715 -78.521)" fill="#09f"/></g><g transform="translate(8.617 141.656)"><g transform="translate(0 0)"><path d="M55.9,271.6H31.629a5.276,5.276,0,0,0,0,10.551H55.9a5.276,5.276,0,0,0,0-10.551Z" transform="translate(-26.353 -271.597)" fill="#09f"/></g></g><g transform="translate(0 120.904)"><path d="M50.3,208.134H5.276a5.276,5.276,0,0,0,0,10.552H50.3a5.276,5.276,0,0,0,0-10.552Z" transform="translate(0 -208.134)" fill="#09f"/></g><g transform="translate(8.617 100.152)"><g transform="translate(0 0)"><path d="M76.649,144.672H31.629a5.276,5.276,0,0,0,0,10.551H76.649a5.276,5.276,0,1,0,0-10.551Z" transform="translate(-26.353 -144.672)" fill="#09f"/></g></g></g></svg>