<svg xmlns="http://www.w3.org/2000/svg" width="154.001" height="154.001" viewBox="0 0 154.001 154.001"><g transform="translate(-0.001)"><g transform="translate(0.001 27.672)"><g transform="translate(0)"><path d="M144.978,150.653a13.551,13.551,0,0,0-13.535-13.535h-20.1a109.733,109.733,0,0,0,4.938-20.79A21.179,21.179,0,0,0,95.349,92a4.512,4.512,0,0,0-4.512,4.512c0,10.9-6.264,27.354-13.574,31.019-8.228,4.125-24.415,8.7-27.639,9.587H4.513A4.512,4.512,0,0,0,0,141.629v63.165a4.511,4.511,0,0,0,4.511,4.512H18.048v4.512a4.512,4.512,0,0,0,4.512,4.512H41.208a13.552,13.552,0,0,0,12.369-8.048l31.654,7.914a4.52,4.52,0,0,0,1.094.135H113.4a13.536,13.536,0,0,0,12.584-18.522A13.538,13.538,0,0,0,135,181.76a13.529,13.529,0,0,0,6.52-22.084A13.481,13.481,0,0,0,144.978,150.653ZM18.047,200.282H9.024V146.141h9.024Zm27.672,4.512a4.517,4.517,0,0,1-4.512,4.512H27.071V146.141H45.72Zm58.653-40.606h27.071a4.512,4.512,0,1,1,0,9.023H104.373a4.512,4.512,0,0,0,0,9.023H122.42a4.512,4.512,0,0,1,0,9.024H104.373a4.512,4.512,0,0,0,0,9.023H113.4a4.512,4.512,0,1,1,0,9.023H86.881l-32.138-8.034v-56.22c6.087-1.748,19-5.661,26.564-9.454,10.362-5.195,16.707-21.626,18.208-33.836A12.167,12.167,0,0,1,107.354,115c-2.137,14.334-4.818,20.217-7.017,24.615a4.512,4.512,0,0,0,4.035,6.53h27.071a4.512,4.512,0,1,1,0,9.023H104.373a4.512,4.512,0,0,0,0,9.024Z" transform="translate(-0.001 -92)" fill="#09f"/></g></g><g transform="translate(95.349)"><path d="M321.512,0A4.512,4.512,0,0,0,317,4.512v9.625a4.512,4.512,0,1,0,9.023,0V4.512A4.512,4.512,0,0,0,321.512,0Z" transform="translate(-317)" fill="#09f"/></g><g transform="translate(60.256 15.138)"><path d="M214.41,58.03l-6.381-6.381a4.512,4.512,0,1,0-6.381,6.381l6.381,6.381a4.512,4.512,0,1,0,6.381-6.381Z" transform="translate(-200.328 -50.327)" fill="#09f"/></g><g transform="translate(45.72 50.231)"><path d="M165.534,167h-9.024a4.512,4.512,0,0,0,0,9.024h9.024a4.512,4.512,0,0,0,0-9.024Z" transform="translate(-151.999 -167)" fill="#09f"/></g><g transform="translate(135.955 50.231)"><path d="M465.535,167h-9.023a4.512,4.512,0,1,0,0,9.024h9.023a4.512,4.512,0,0,0,0-9.024Z" transform="translate(-452 -167)" fill="#09f"/></g><g transform="translate(124.062 15.138)"><path d="M426.542,51.649a4.512,4.512,0,0,0-6.38,0l-6.381,6.381a4.512,4.512,0,1,0,6.381,6.381l6.38-6.381A4.512,4.512,0,0,0,426.542,51.649Z" transform="translate(-412.459 -50.327)" fill="#09f"/></g></g></svg>