<svg xmlns="http://www.w3.org/2000/svg" width="116" height="116" viewBox="0 0 116 116"><path d="M39.422,54.375H14.953A14.97,14.97,0,0,1,0,39.422V14.953A14.97,14.97,0,0,1,14.953,0H39.422A14.97,14.97,0,0,1,54.375,14.953V39.422A14.97,14.97,0,0,1,39.422,54.375ZM14.953,7.25a7.712,7.712,0,0,0-7.7,7.7V39.422a7.712,7.712,0,0,0,7.7,7.7H39.422a7.712,7.712,0,0,0,7.7-7.7V14.953a7.712,7.712,0,0,0-7.7-7.7Z" fill="#b80000"/><path d="M311.422,54.375H286.953A14.97,14.97,0,0,1,272,39.422V14.953A14.97,14.97,0,0,1,286.953,0h24.469a14.97,14.97,0,0,1,14.953,14.953V39.422A14.97,14.97,0,0,1,311.422,54.375ZM286.953,7.25a7.712,7.712,0,0,0-7.7,7.7V39.422a7.712,7.712,0,0,0,7.7,7.7h24.469a7.712,7.712,0,0,0,7.7-7.7V14.953a7.712,7.712,0,0,0-7.7-7.7Z" transform="translate(-210.375)" fill="#b80000"/><path d="M299.188,326.375a27.188,27.188,0,1,1,27.188-27.187A27.218,27.218,0,0,1,299.188,326.375Zm0-47.125a19.938,19.938,0,1,0,19.938,19.938A19.96,19.96,0,0,0,299.188,279.25Z" transform="translate(-210.375 -210.375)" fill="#b80000"/><path d="M39.422,326.375H14.953A14.97,14.97,0,0,1,0,311.422V286.953A14.97,14.97,0,0,1,14.953,272H39.422a14.97,14.97,0,0,1,14.953,14.953v24.469A14.97,14.97,0,0,1,39.422,326.375ZM14.953,279.25a7.712,7.712,0,0,0-7.7,7.7v24.469a7.712,7.712,0,0,0,7.7,7.7H39.422a7.712,7.712,0,0,0,7.7-7.7V286.953a7.712,7.712,0,0,0-7.7-7.7Z" transform="translate(0 -210.375)" fill="#b80000"/></svg>