<svg xmlns="http://www.w3.org/2000/svg" width="93.717" height="85.758" viewBox="0 0 93.717 85.758"><g transform="translate(-20.398 -24.104)"><path d="M84.2,38.839V34.163h1.928a1.881,1.881,0,0,0,1.881-1.881v-6.3A1.882,1.882,0,0,0,86.125,24.1H70.6a1.882,1.882,0,0,0-1.881,1.881v6.3A1.881,1.881,0,0,0,70.6,34.163h1.928v4.676a35.861,35.861,0,0,0-27.761,23.04H28.692a1.881,1.881,0,0,0,0,3.761H43.637a35.614,35.614,0,0,0-.967,6.583H22.279a1.881,1.881,0,1,0,0,3.761H42.665a35.614,35.614,0,0,0,.967,6.583H28.692a1.881,1.881,0,0,0,0,3.761H44.771A35.749,35.749,0,1,0,84.2,38.839ZM72.484,27.861h11.76V30.4H72.484Zm3.809,6.3h4.143v4.257c-.686-.039-1.376-.064-2.072-.064s-1.385.026-2.071.064ZM78.364,106.1a31.989,31.989,0,1,1,31.987-31.99A31.989,31.989,0,0,1,78.364,106.1Z" fill="#b80000"/><path d="M95.542,53.431a1.421,1.421,0,0,0-.107-.126,1.614,1.614,0,0,0-.127-.107,27.117,27.117,0,0,0-38.174,0,1.294,1.294,0,0,0-.127.107c-.04.043-.068.084-.1.126a27.116,27.116,0,0,0,0,38.171,1.5,1.5,0,0,0,.107.13c.042.041.087.07.13.107a27.116,27.116,0,0,0,38.167,0c.043-.037.089-.066.13-.107s.07-.087.107-.13a27.116,27.116,0,0,0,0-38.171ZM98.216,74.4h1.339a23.3,23.3,0,0,1-5.51,13.279l-.94-.94a1.881,1.881,0,1,0-2.66,2.66l.94.94a23.313,23.313,0,0,1-13.279,5.51V94.508a1.881,1.881,0,1,0-3.761,0v1.339a23.313,23.313,0,0,1-13.278-5.51l.94-.94a1.881,1.881,0,1,0-2.66-2.66l-.94.94A23.307,23.307,0,0,1,52.9,74.4h1.339a1.881,1.881,0,1,0,0-3.761H52.9a23.307,23.307,0,0,1,5.51-13.279l.94.94a1.881,1.881,0,1,0,2.66-2.659l-.941-.94a23.3,23.3,0,0,1,13.278-5.51v1.339a1.881,1.881,0,0,0,3.761,0V49.19A23.3,23.3,0,0,1,91.384,54.7l-.94.94A1.881,1.881,0,0,0,93.1,58.3l.94-.94a23.3,23.3,0,0,1,5.51,13.278H98.216a1.881,1.881,0,1,0,0,3.761Z" transform="translate(2.14 1.586)" fill="#b80000"/><path d="M76.347,70.9V58.088a1.881,1.881,0,0,0-3.761,0V71.707a1.883,1.883,0,0,0,.582,1.361l6.46,6.166a1.882,1.882,0,0,0,2.6-2.723Z" transform="translate(3.897 2.397)" fill="#b80000"/></g></svg>