<svg xmlns="http://www.w3.org/2000/svg" width="89.723" height="85.948" viewBox="0 0 89.723 85.948"><g transform="translate(0 -10.849)"><path d="M89.589,37.985A49.744,49.744,0,0,0,67.5,11.176a2.425,2.425,0,0,0-3.336.922L61.91,16.156A42.626,42.626,0,1,0,42.623,96.8a42.2,42.2,0,0,0,26.216-9.015,1.3,1.3,0,1,0-1.607-2.057,39.994,39.994,0,0,1-9.426,5.492L53.345,78.979A27.2,27.2,0,0,0,66.367,67.071L78.03,72.84a40.137,40.137,0,0,1-6.779,9.285,1.3,1.3,0,0,0,1.867,1.823,42.656,42.656,0,0,0,10.5-41.484l4.406-1.375a2.426,2.426,0,0,0,1.571-3.1ZM60.643,18.44l-6.31,11.375a27.071,27.071,0,0,0-22.375-.48L26.372,17.586a40.162,40.162,0,0,1,34.271.854Zm6.4,35.734a24.284,24.284,0,0,1-1.879,9.389l-7.707-3.812a15.851,15.851,0,0,0,.571-9.3l8.193-2.557A24.45,24.45,0,0,1,67.039,54.174ZM42.623,70.018a15.8,15.8,0,0,0,4.445-.636l2.94,8.064a24.432,24.432,0,0,1-15.7-.317l3.446-7.879A15.831,15.831,0,0,0,42.623,70.018Zm0-2.61A13.171,13.171,0,0,1,35.3,65.2a1.3,1.3,0,0,0-1.446,2.172,15.869,15.869,0,0,0,1.486.876L31.9,76.107A24.579,24.579,0,0,1,20.763,65.04l7.928-3.321a15.848,15.848,0,0,0,.826,1.358,1.3,1.3,0,1,0,2.157-1.468,13.235,13.235,0,1,1,10.949,5.8ZM18.207,54.174a24.424,24.424,0,0,1,1.089-7.23l8.037,3.073a15.882,15.882,0,0,0,.305,9.314l-7.914,3.315A24.305,24.305,0,0,1,18.207,54.174ZM42.623,38.329a15.762,15.762,0,0,0-5.856,1.122l-3.688-7.758a24.47,24.47,0,0,1,19.986.407l-4.173,7.523A15.754,15.754,0,0,0,42.623,38.329ZM57.2,47.972a15.945,15.945,0,0,0-6.009-7.119l6.312-11.378A28.712,28.712,0,0,1,69.641,44.091ZM14.329,25.88a40.139,40.139,0,0,1,9.695-7.154l5.588,11.755a27.1,27.1,0,0,0-5.527,4.029,1.3,1.3,0,1,0,1.79,1.9,24.478,24.478,0,0,1,4.86-3.565l3.7,7.772a15.949,15.949,0,0,0-6.206,6.948L20.2,44.5a24.355,24.355,0,0,1,2.214-4.028A1.3,1.3,0,1,0,20.257,39a26.972,26.972,0,0,0-2.494,4.563L5.61,38.918a39.945,39.945,0,0,1,8.72-13.037ZM4.7,41.363l12.159,4.648a27.063,27.063,0,0,0,.46,17.644l-12,5.028A40.338,40.338,0,0,1,4.7,41.363Zm1.64,29.721,12.014-5.033A27.2,27.2,0,0,0,30.857,78.5L25.641,90.427a40.343,40.343,0,0,1-19.3-19.343ZM55.36,92.128a40.363,40.363,0,0,1-27.321-.672l5.218-11.931A27.035,27.035,0,0,0,50.9,79.9ZM52.449,76.523,49.5,68.445a15.953,15.953,0,0,0,6.829-6.336l7.692,3.8A24.572,24.572,0,0,1,52.449,76.523ZM82.636,54.174a39.9,39.9,0,0,1-3.465,16.32L67.5,64.723a27.058,27.058,0,0,0,1.209-17.608l12.407-3.872A40.03,40.03,0,0,1,82.636,54.174Zm-10.5-10.861A31.309,31.309,0,0,0,58.772,27.192L66.351,13.53A47.132,47.132,0,0,1,87.059,38.656Z" transform="translate(0 0)" fill="#b80000"/></g></svg>