<svg xmlns="http://www.w3.org/2000/svg" width="140" height="136.815" viewBox="0 0 140 136.815"><g transform="translate(0 -5.824)"><path d="M199.467,162.031a11.915,11.915,0,0,0-16.791,1.439l-17.807,21.147-8.594-8.938A11.916,11.916,0,1,0,139.1,192.2l17.77,18.482a11.974,11.974,0,0,0,8.589,3.657c.13,0,.26,0,.393-.007a11.932,11.932,0,0,0,8.723-4.234l26.335-31.274a11.916,11.916,0,0,0-1.439-16.791ZM196.723,175.3l-26.336,31.275a6.448,6.448,0,0,1-9.579.316l-17.771-18.482a6.448,6.448,0,0,1,9.3-8.938l10.7,11.128a2.734,2.734,0,0,0,4.062-.134l19.764-23.471a6.448,6.448,0,1,1,9.863,8.306Z" transform="translate(-98.644 -111.458)" fill="#b80000"/><path d="M112.21,58.1a54.115,54.115,0,1,0,54.114,54.114A54.176,54.176,0,0,0,112.21,58.1Zm0,102.76a48.646,48.646,0,1,1,48.646-48.646,48.7,48.7,0,0,1-48.646,48.646Z" transform="translate(-42.21 -37.979)" fill="#b80000"/><path d="M136.264,83.631c1.751-2.722,3.736-5.808,3.736-9.4s-1.985-6.678-3.736-9.4a18.158,18.158,0,0,1-2.635-5.1,18.8,18.8,0,0,1,.142-5.972c.4-3.314.816-6.74-.693-9.863-1.535-3.178-4.641-5.082-7.38-6.762a18.494,18.494,0,0,1-4.682-3.528,18.548,18.548,0,0,1-2.428-5.374c-1.031-3.029-2.2-6.463-4.943-8.65s-6.33-2.553-9.508-2.886a18.745,18.745,0,0,1-5.821-1.183,18.392,18.392,0,0,1-4.445-3.74c-2.26-2.3-4.822-4.913-8.3-5.7-3.346-.759-6.575.4-9.7,1.521A18.973,18.973,0,0,1,70,9.071a18.972,18.972,0,0,1-5.876-1.483C61,6.467,57.77,5.308,54.425,6.067c-3.474.789-6.036,3.4-8.3,5.7a18.385,18.385,0,0,1-4.445,3.74,18.747,18.747,0,0,1-5.822,1.183c-3.178.333-6.78.71-9.508,2.886s-3.912,5.62-4.943,8.649A18.534,18.534,0,0,1,18.983,33.6,18.493,18.493,0,0,1,14.3,37.13c-2.74,1.68-5.845,3.584-7.38,6.762-1.509,3.123-1.094,6.549-.693,9.863a18.786,18.786,0,0,1,.142,5.973,18.156,18.156,0,0,1-2.635,5.1C1.985,67.554,0,70.639,0,74.231s1.985,6.678,3.736,9.4a18.158,18.158,0,0,1,2.635,5.1,18.8,18.8,0,0,1-.142,5.972c-.4,3.314-.816,6.74.693,9.863,1.535,3.178,4.641,5.082,7.38,6.762a18.494,18.494,0,0,1,4.682,3.528,18.548,18.548,0,0,1,2.428,5.374c1.031,3.029,2.2,6.463,4.943,8.65s6.33,2.553,9.508,2.886a18.745,18.745,0,0,1,5.821,1.183,18.392,18.392,0,0,1,4.445,3.74c2.26,2.3,4.822,4.913,8.3,5.7,3.346.759,6.576-.4,9.7-1.521A18.973,18.973,0,0,1,70,139.391a18.972,18.972,0,0,1,5.876,1.483,22.56,22.56,0,0,0,7.475,1.764,10.01,10.01,0,0,0,2.224-.244c3.474-.789,6.036-3.4,8.3-5.7a18.385,18.385,0,0,1,4.445-3.74,18.747,18.747,0,0,1,5.822-1.183c3.178-.333,6.78-.71,9.508-2.886s3.912-5.62,4.943-8.649a18.534,18.534,0,0,1,2.428-5.374,18.493,18.493,0,0,1,4.682-3.528c2.74-1.68,5.845-3.584,7.38-6.762,1.509-3.123,1.094-6.549.693-9.863a18.786,18.786,0,0,1-.142-5.973,18.158,18.158,0,0,1,2.635-5.1Zm-4.6-2.958a22.158,22.158,0,0,0-3.368,6.849,22.892,22.892,0,0,0,.046,7.844c.321,2.647.623,5.148-.188,6.826-.838,1.733-3.012,3.067-5.315,4.478a22.542,22.542,0,0,0-6.095,4.775,22.6,22.6,0,0,0-3.334,7.027c-.866,2.544-1.684,4.947-3.175,6.136s-4,1.443-6.669,1.723a22.81,22.81,0,0,0-7.625,1.7,22.415,22.415,0,0,0-5.975,4.837c-1.9,1.937-3.7,3.766-5.6,4.2-1.791.407-4.146-.439-6.642-1.335a23.1,23.1,0,0,0-7.723-1.8,23.088,23.088,0,0,0-7.723,1.8c-2.5.9-4.851,1.742-6.642,1.335-1.907-.433-3.7-2.262-5.6-4.2a22.406,22.406,0,0,0-5.975-4.837,22.807,22.807,0,0,0-7.625-1.7c-2.669-.279-5.19-.544-6.669-1.723s-2.309-3.592-3.175-6.136a22.6,22.6,0,0,0-3.334-7.027,22.547,22.547,0,0,0-6.095-4.775c-2.3-1.411-4.477-2.745-5.315-4.478-.811-1.679-.508-4.179-.188-6.827a22.889,22.889,0,0,0,.046-7.844,22.158,22.158,0,0,0-3.368-6.849c-1.474-2.292-2.866-4.456-2.866-6.442s1.392-4.15,2.866-6.442A22.158,22.158,0,0,0,11.7,60.941a22.892,22.892,0,0,0-.046-7.844c-.321-2.647-.623-5.148.188-6.826.838-1.733,3.012-3.067,5.315-4.478a22.542,22.542,0,0,0,6.095-4.775,22.6,22.6,0,0,0,3.334-7.027c.866-2.544,1.684-4.947,3.175-6.136s4-1.443,6.669-1.723a22.81,22.81,0,0,0,7.625-1.7A22.415,22.415,0,0,0,50.032,15.6c1.9-1.937,3.7-3.766,5.6-4.2,1.791-.406,4.147.44,6.642,1.335A23.1,23.1,0,0,0,70,14.54a23.088,23.088,0,0,0,7.723-1.8c2.5-.9,4.851-1.742,6.642-1.335,1.908.433,3.7,2.262,5.6,4.2a22.406,22.406,0,0,0,5.975,4.837,22.807,22.807,0,0,0,7.625,1.7c2.669.279,5.19.544,6.669,1.723s2.309,3.592,3.175,6.136a22.605,22.605,0,0,0,3.334,7.027,22.547,22.547,0,0,0,6.095,4.775c2.3,1.411,4.477,2.745,5.315,4.478.811,1.679.508,4.179.188,6.827a22.888,22.888,0,0,0-.046,7.844,22.157,22.157,0,0,0,3.368,6.849c1.474,2.292,2.866,4.457,2.866,6.442s-1.392,4.15-2.866,6.442Z" fill="#b80000"/></g></svg>