<svg xmlns="http://www.w3.org/2000/svg" width="98.063" height="86.188" viewBox="0 0 98.063 86.188"><g transform="translate(0 -31)"><g transform="translate(0 31)"><path d="M97.724,66.993a2.873,2.873,0,0,0-2.533-1.517H91.455A43.1,43.1,0,0,0,12.822,51.019a2.873,2.873,0,0,0,.947,4l9.87,5.922a2.873,2.873,0,0,0,3.887-.9A25.851,25.851,0,0,1,73.6,65.475h-1.4a2.873,2.873,0,0,0-2.391,4.466L81.309,87.18a2.873,2.873,0,0,0,4.781,0L97.581,69.942A2.873,2.873,0,0,0,97.724,66.993ZM83.7,80.407l-6.128-9.192a2.873,2.873,0,0,0,2.62-3.44,31.6,31.6,0,0,0-55.87-13.121L19.35,51.671A37.357,37.357,0,0,1,86.194,68.755a2.873,2.873,0,0,0,2.844,2.466h.785Zm-.317,14.9-8.871-7.393a2.874,2.874,0,0,0-4.221.6,25.85,25.85,0,0,1-45.83-5.8h1.4a2.873,2.873,0,0,0,2.39-4.466L16.755,61.009a2.873,2.873,0,0,0-4.781,0L.483,78.247a2.873,2.873,0,0,0,2.39,4.466H6.609A43.1,43.1,0,0,0,83.877,99.191,2.873,2.873,0,0,0,83.382,95.309ZM48.84,111.443A37.507,37.507,0,0,1,11.87,79.433a2.873,2.873,0,0,0-2.844-2.466H8.241l6.124-9.186,6.128,9.192a2.873,2.873,0,0,0-2.62,3.44A31.593,31.593,0,0,0,73.154,94.265l4.423,3.686A37.47,37.47,0,0,1,48.84,111.443Z" transform="translate(0 -31)" fill="#b80000"/></g></g></svg>