<svg xmlns="http://www.w3.org/2000/svg" width="139.174" height="139.174" viewBox="0 0 139.174 139.174"><g transform="translate(-2 -2)"><path d="M129.576,11.278H78.314A11.637,11.637,0,0,0,66.948,2H48.391a11.637,11.637,0,0,0-11.366,9.278H13.6A11.6,11.6,0,0,0,2,22.876V97.1a11.6,11.6,0,0,0,11.6,11.6H57.67v13.917H43.752a6.98,6.98,0,0,0-6.959,6.959v9.278a2.32,2.32,0,0,0,2.32,2.32h64.948a2.32,2.32,0,0,0,2.32-2.32v-9.278a6.98,6.98,0,0,0-6.959-6.959H85.5V108.7h44.072a11.6,11.6,0,0,0,11.6-11.6V22.876A11.6,11.6,0,0,0,129.576,11.278ZM66.948,6.639A6.98,6.98,0,0,1,73.907,13.6V25.2H69.268V13.6a11.422,11.422,0,0,0-2.389-6.959ZM50.711,13.6a6.959,6.959,0,0,1,13.917,0V25.2H50.711Zm0,16.237H83.185V43.752H76.226a2.32,2.32,0,0,0-2.32,2.32V71.587h-23.2ZM83.185,48.391v23.2H78.546v-23.2ZM41.433,13.6a6.98,6.98,0,0,1,6.959-6.959h.07A11.422,11.422,0,0,0,46.072,13.6V25.2H41.433Zm4.639,16.237V68.317l-4.639-4.639v-29.2H36.794v29.2l-4.639,4.639V29.835ZM42.8,71.587H35.425L39.113,67.9Zm56.621,55.67a2.32,2.32,0,0,1,2.32,2.32v6.959H41.433v-6.959a2.32,2.32,0,0,1,2.32-2.32Zm-37.113-4.639V108.7H80.865v13.917ZM136.535,97.1a6.98,6.98,0,0,1-6.959,6.959H13.6A6.98,6.98,0,0,1,6.639,97.1V90.144h129.9Zm0-11.6H6.639V22.876A6.98,6.98,0,0,1,13.6,15.917h23.2V25.2H29.835a2.32,2.32,0,0,0-2.32,2.32V73.907a2.32,2.32,0,0,0,2.32,2.32h83.5a2.32,2.32,0,0,0,2.32-2.32V46.072a2.32,2.32,0,0,0-2.32-2.32h-6.959V36.794a6.98,6.98,0,0,0-6.959-6.959H90.144a6.959,6.959,0,0,0-2.32.418V27.515A2.32,2.32,0,0,0,85.5,25.2H78.546V15.917h51.031a6.98,6.98,0,0,1,6.959,6.959ZM111.02,48.391v23.2h-23.2v-23.2Zm-23.2-4.639V36.794a2.32,2.32,0,0,1,2.32-2.32h9.278a2.32,2.32,0,0,1,2.32,2.32v6.959Z" transform="translate(0)" fill="#b80000"/><rect width="5" height="4" transform="translate(122.711 94.711)" fill="#b80000"/><rect width="5" height="4" transform="translate(112.711 94.711)" fill="#b80000"/><path d="M56.892,26.85a2.319,2.319,0,0,0,1.64-.679l11.6-11.6-3.28-3.28-9.958,9.958-5.319-5.319-3.28,3.28,6.959,6.959A2.32,2.32,0,0,0,56.892,26.85Z" transform="translate(61.087 12.263)" fill="#b80000"/></g></svg>