<svg xmlns="http://www.w3.org/2000/svg" width="18.164" height="19.379" viewBox="0 0 18.164 19.379">
  <g id="profile" transform="translate(1.03)">
    <path id="Trazado_32" data-name="Trazado 32" d="M-8370.741-6616.383s-.361-4.3,1.46-5.9,3.34-1.362,6.67-1.362,5.179-.193,6.648,1.362,1.311,5.9,1.311,5.9" transform="translate(8370.771 6634.682)" fill="none" stroke="#fff" stroke-linecap="round" stroke-linejoin="round" stroke-width="2"/>
    <g id="Trazado_33" data-name="Trazado 33" transform="translate(3.329)" fill="none">
      <path d="M4.626,0A4.626,4.626,0,1,1,0,4.626,4.626,4.626,0,0,1,4.626,0Z" stroke="none"/>
      <path d="M 4.62586498260498 1.99999475479126 C 3.177955150604248 1.99999475479126 1.99999475479126 3.177955150604248 1.99999475479126 4.62586498260498 C 1.99999475479126 6.073764801025391 3.177955150604248 7.251725196838379 4.62586498260498 7.251725196838379 C 6.073764801025391 7.251725196838379 7.251725196838379 6.073764801025391 7.251725196838379 4.62586498260498 C 7.251725196838379 3.177955150604248 6.073764801025391 1.99999475479126 4.62586498260498 1.99999475479126 M 4.62586498260498 -4.76837158203125e-06 C 7.180655002593994 -4.76837158203125e-06 9.251725196838379 2.071074962615967 9.251725196838379 4.62586498260498 C 9.251725196838379 7.180655002593994 7.180655002593994 9.251725196838379 4.62586498260498 9.251725196838379 C 2.071074962615967 9.251725196838379 -4.76837158203125e-06 7.180655002593994 -4.76837158203125e-06 4.62586498260498 C -4.76837158203125e-06 2.071074962615967 2.071074962615967 -4.76837158203125e-06 4.62586498260498 -4.76837158203125e-06 Z" stroke="none" fill="#fff"/>
    </g>
  </g>
</svg>
